<svg height="25" width="25" xmlns="http://www.w3.org/2000/svg" viewBox="0 0 100 99.66"><defs><style>.cls-1{fill:#fff;}</style></defs><title>Artboard 11 copy</title><g id="Hudl"><g id="hudl-app-icon-cropped"><path id="DUDES" class="cls-1" d="M50.11,99.66a17.19,17.19,0,0,1-14.87-8.6,17.41,17.41,0,0,1-1.79-4.52.3.3,0,0,0-.19-.22,46,46,0,0,1-6.51-3.25.29.29,0,0,1-.13-.16A45.21,45.21,0,0,1,24.37,58.2a.3.3,0,0,1,.22-.24h.07a.29.29,0,0,1,.25.1,45.12,45.12,0,0,0,14.9,10.62l.13,0a.33.33,0,0,0,.19-.06,16.81,16.81,0,0,1,1.45-.94,17.09,17.09,0,0,1,22,4.31.3.3,0,0,0,.25.12h0a46.58,46.58,0,0,0,4.72-.89A45.63,45.63,0,0,0,92.5,56.55a.32.32,0,0,1,.24-.11.37.37,0,0,1,.15,0,.32.32,0,0,1,.16.37A45.11,45.11,0,0,1,66.93,86.25a.32.32,0,0,0-.19.23A17.1,17.1,0,0,1,50.11,99.66ZM18.17,76.19a.33.33,0,0,1-.23-.1A44.46,44.46,0,0,1,5.15,44.8a45.11,45.11,0,0,1,.41-6,.31.31,0,0,0-.1-.27A17.11,17.11,0,0,1,22,9.65l.09,0a.32.32,0,0,0,.2-.07,44.47,44.47,0,0,1,6.09-4.06.26.26,0,0,1,.15,0A45.29,45.29,0,0,1,51.16,15.94a.32.32,0,0,1,.1.32.33.33,0,0,1-.24.24,44.67,44.67,0,0,0-16.69,7.6.31.31,0,0,0-.13.29c.06.61.09,1.18.09,1.73A17.18,17.18,0,0,1,19.56,43a.31.31,0,0,0-.25.2,47.44,47.44,0,0,0-1.59,4.52,45.67,45.67,0,0,0,.75,28,.32.32,0,0,1-.13.38A.34.34,0,0,1,18.17,76.19ZM74.23,60.25a.31.31,0,0,1-.22-.09.32.32,0,0,1-.09-.32,44.93,44.93,0,0,0,1.78-18,.33.33,0,0,0-.18-.26,17.1,17.1,0,0,1-8.65-22,.33.33,0,0,0,0-.32,48.5,48.5,0,0,0-3.28-3.85A45.7,45.7,0,0,0,38.89,2a.31.31,0,0,1-.26-.31.32.32,0,0,1,.24-.32A45.06,45.06,0,0,1,50,0,44.2,44.2,0,0,1,77.61,9.61a.37.37,0,0,0,.2.07l.09,0A16.4,16.4,0,0,1,82.68,9,17.1,17.1,0,0,1,94.43,38.54a.31.31,0,0,0-.1.27,45.34,45.34,0,0,1,.41,6c0,.18,0,.37,0,.55l0,.35a.25.25,0,0,1-.07.19A45.2,45.2,0,0,1,74.34,60.23Z"/></g></g></svg>